<svg width="3010" height="1484" viewBox="0 0 3010 1484" fill="none" xmlns="http://www.w3.org/2000/svg">
<path d="M3009.74 31.6272C2341.61 131.287 1982.01 71.7673 1885.73 29.5498C2008.7 287.549 1936.14 584.591 1884.49 700.862C2462.07 674.096 2875.32 243.553 3009.74 31.6272Z" fill="#FF0000"/>
<rect x="1848.28" width="52.503" height="1234.46" rx="26.2515" transform="rotate(0.105892 1848.28 0)" fill="black"/>
<path fill-rule="evenodd" clip-rule="evenodd" d="M2493.27 235.397C2489.79 336.987 2411.8 422.991 2307.84 433.704C2203.88 444.417 2109.99 376.13 2085.86 277.387C2085.54 286.777 2085.86 296.301 2086.85 305.91C2098.55 419.482 2200.11 502.063 2313.68 490.36C2427.25 478.656 2509.83 377.1 2498.13 263.528C2497.14 253.916 2495.5 244.526 2493.27 235.397Z" fill="white"/>
<circle cx="2293.67" cy="296.571" r="68.8991" transform="rotate(-5.88351 2293.67 296.571)" fill="white"/>
<ellipse cx="438" cy="439" rx="438" ry="439" fill="#FF0000"/>
<ellipse cx="1383" cy="439" rx="438" ry="439" fill="#FF0000"/>
<ellipse cx="438.5" cy="439" rx="337.5" ry="337" fill="white"/>
<ellipse cx="1382.5" cy="439" rx="337.5" ry="337" fill="white"/>
<ellipse cx="438.5" cy="439" rx="147.5" ry="148" fill="black"/>
<circle cx="1383" cy="439" r="148" fill="black"/>
<path d="M153.856 1181.48C142.805 1163.14 137.279 1142.8 137.279 1120.47C137.279 1098.14 142.748 1077.86 153.686 1059.63C164.737 1041.29 179.833 1026.93 198.974 1016.57C218.228 1006.08 239.534 1000.84 262.89 1000.84C284.081 1000.84 303.108 1005.29 319.97 1014.17C336.832 1022.95 350.902 1035.65 362.182 1052.28L320.312 1088C305.045 1066.7 285.562 1056.04 261.864 1056.04C242.496 1056.04 227.115 1061.97 215.722 1073.82C204.442 1085.67 198.803 1101.22 198.803 1120.47C198.803 1140.3 204.784 1156.3 216.747 1168.5C228.71 1180.57 244.888 1186.61 265.282 1186.61C287.157 1186.61 304.076 1179.72 316.039 1165.93V1155.17H262.206V1103.38H376.195V1176.19C365.486 1195.33 350.105 1210.82 330.053 1222.67C310.115 1234.4 287.727 1240.27 262.89 1240.27C239.647 1240.27 218.399 1235.09 199.145 1224.72C180.004 1214.24 164.908 1199.83 153.856 1181.48ZM398.754 1120.47C398.754 1103.84 402.001 1088.12 408.495 1073.3C415.103 1058.38 423.933 1045.68 434.984 1035.19C446.036 1024.6 459.195 1016.22 474.462 1010.07C489.843 1003.92 506.021 1000.84 522.997 1000.84C539.973 1000.84 556.151 1003.92 571.532 1010.07C586.913 1016.22 600.186 1024.6 611.352 1035.19C622.517 1045.68 631.404 1058.38 638.012 1073.3C644.62 1088.12 647.924 1103.84 647.924 1120.47C647.924 1137.22 644.62 1153.06 638.012 1167.98C631.404 1182.79 622.517 1195.5 611.352 1206.09C600.186 1216.57 586.913 1224.89 571.532 1231.04C556.151 1237.2 539.973 1240.27 522.997 1240.27C506.021 1240.27 489.843 1237.2 474.462 1231.04C459.195 1224.89 446.036 1216.57 434.984 1206.09C423.933 1195.5 415.103 1182.79 408.495 1167.98C402.001 1153.06 398.754 1137.22 398.754 1120.47ZM460.277 1120.47C460.277 1139.84 466.088 1155.45 477.709 1167.3C489.444 1179.03 504.654 1184.9 523.339 1184.9C541.454 1184.9 556.436 1178.98 568.285 1167.13C580.248 1155.28 586.229 1139.73 586.229 1120.47C586.229 1101.45 580.248 1085.95 568.285 1073.99C556.436 1062.03 541.454 1056.04 523.339 1056.04C504.768 1056.04 489.615 1062.03 477.88 1073.99C466.145 1085.84 460.277 1101.33 460.277 1120.47ZM682.274 1236V1004.95H762.768C786.579 1004.95 807.942 1009.5 826.854 1018.62C845.881 1027.73 860.92 1041.12 871.972 1058.78C883.137 1076.32 888.72 1096.66 888.72 1119.79C888.72 1142.58 883.194 1162.86 872.143 1180.63C861.091 1198.4 845.995 1212.07 826.854 1221.64C807.828 1231.21 786.465 1236 762.768 1236H682.274ZM742.431 1181.83H762.426C781.225 1181.83 796.719 1176.3 808.91 1165.25C821.101 1154.2 827.196 1139.04 827.196 1119.79C827.196 1100.08 821.158 1085.15 809.081 1075.01C797.118 1064.76 781.566 1059.63 762.426 1059.63H742.431V1181.83ZM1021.34 1236V1004.95H1081.49V1181.83H1177.2V1236H1021.34ZM1208.64 1236V1004.95H1368.94V1059.29H1268.8V1091.08H1340.23V1141.49H1268.8V1181.83H1373.22V1236H1208.64ZM1388.26 1004.95H1456.44L1503.1 1118.42L1549.24 1004.95H1617.6L1512.5 1240.27H1493.19L1388.26 1004.95ZM1641.36 1236V1004.95H1801.66V1059.29H1701.51V1091.08H1772.95V1141.49H1701.51V1181.83H1805.93V1236H1641.36ZM137.006 1376.08C137.006 1361.56 140.487 1348.31 147.45 1336.33C154.488 1324.27 164.034 1314.84 176.088 1308.03C188.217 1301.14 201.506 1297.69 215.956 1297.69C229.433 1297.69 241.674 1300.65 252.68 1306.57C263.686 1312.48 272.445 1320.42 278.959 1330.37L265.595 1340.93C259.83 1332.47 252.717 1325.92 244.257 1321.28C235.871 1316.56 226.513 1314.2 216.181 1314.2C207.72 1314.2 199.747 1315.77 192.26 1318.92C184.773 1322.06 178.334 1326.37 172.943 1331.83C167.628 1337.3 163.397 1343.89 160.253 1351.6C157.183 1359.24 155.648 1367.4 155.648 1376.08C155.648 1384.77 157.183 1392.97 160.253 1400.68C163.397 1408.31 167.628 1414.86 172.943 1420.33C178.334 1425.8 184.773 1430.1 192.26 1433.25C199.747 1436.39 207.72 1437.96 216.181 1437.96C226.513 1437.96 235.871 1435.64 244.257 1431C252.717 1426.36 259.83 1419.81 265.595 1411.35L278.959 1421.9C272.67 1431.79 263.948 1439.72 252.792 1445.71C241.711 1451.63 229.433 1454.58 215.956 1454.58C205.175 1454.58 194.918 1452.56 185.185 1448.52C175.451 1444.48 167.029 1438.97 159.916 1432.01C152.878 1425.05 147.3 1416.7 143.183 1406.97C139.065 1397.23 137.006 1386.94 137.006 1376.08ZM440.597 1376.08C440.597 1361.56 444.078 1348.31 451.041 1336.33C458.079 1324.27 467.625 1314.84 479.679 1308.03C491.733 1301.14 504.947 1297.69 519.322 1297.69C533.623 1297.69 546.8 1301.14 558.854 1308.03C570.908 1314.84 580.454 1324.27 587.491 1336.33C594.604 1348.31 598.16 1361.56 598.16 1376.08C598.16 1390.61 594.604 1403.9 587.491 1415.95C580.454 1428 570.908 1437.48 558.854 1444.36C546.8 1451.18 533.623 1454.58 519.322 1454.58C508.541 1454.58 498.284 1452.56 488.551 1448.52C478.818 1444.4 470.432 1438.86 463.395 1431.9C456.432 1424.93 450.891 1416.62 446.774 1406.97C442.656 1397.23 440.597 1386.94 440.597 1376.08ZM459.239 1375.86C459.239 1393.6 464.967 1408.39 476.422 1420.22C487.877 1432.05 502.252 1437.96 519.547 1437.96C530.778 1437.96 540.96 1435.27 550.094 1429.88C559.303 1424.49 566.49 1417.04 571.656 1407.53C576.897 1398.02 579.518 1387.46 579.518 1375.86C579.518 1358.34 573.79 1343.7 562.335 1331.95C550.88 1320.12 536.617 1314.2 519.547 1314.2C502.252 1314.2 487.877 1320.08 476.422 1331.83C464.967 1343.59 459.239 1358.26 459.239 1375.86ZM770.467 1452V1297.69H776.981L873.563 1414.49V1300.16H891.532V1454.58H885.018L788.436 1337.9V1452H770.467ZM1063.73 1376.08C1063.73 1361.56 1067.21 1348.31 1074.17 1336.33C1081.21 1324.27 1090.75 1314.84 1102.81 1308.03C1114.94 1301.14 1128.23 1297.69 1142.68 1297.69C1156.15 1297.69 1168.39 1300.65 1179.4 1306.57C1190.41 1312.48 1199.17 1320.42 1205.68 1330.37L1192.32 1340.93C1186.55 1332.47 1179.44 1325.92 1170.98 1321.28C1162.59 1316.56 1153.23 1314.2 1142.9 1314.2C1134.44 1314.2 1126.47 1315.77 1118.98 1318.92C1111.49 1322.06 1105.05 1326.37 1099.66 1331.83C1094.35 1337.3 1090.12 1343.89 1086.97 1351.6C1083.9 1359.24 1082.37 1367.4 1082.37 1376.08C1082.37 1384.77 1083.9 1392.97 1086.97 1400.68C1090.12 1408.31 1094.35 1414.86 1099.66 1420.33C1105.05 1425.8 1111.49 1430.1 1118.98 1433.25C1126.47 1436.39 1134.44 1437.96 1142.9 1437.96C1153.23 1437.96 1162.59 1435.64 1170.98 1431C1179.44 1426.36 1186.55 1419.81 1192.32 1411.35L1205.68 1421.9C1199.39 1431.79 1190.67 1439.72 1179.51 1445.71C1168.43 1451.63 1156.15 1454.58 1142.68 1454.58C1131.9 1454.58 1121.64 1452.56 1111.9 1448.52C1102.17 1444.48 1093.75 1438.97 1086.64 1432.01C1079.6 1425.05 1074.02 1416.7 1069.9 1406.97C1065.79 1397.23 1063.73 1386.94 1063.73 1376.08ZM1378.32 1452V1300.16H1475.69V1316.34H1396.29V1362.72H1457.05V1378.89H1396.29V1435.94H1478.39V1452H1378.32ZM1648.9 1452V1300.16H1702.35C1717.1 1300.16 1728.86 1304.24 1737.62 1312.41C1746.45 1320.57 1750.87 1331.12 1750.87 1344.08C1750.87 1357.1 1746.45 1367.77 1737.62 1376.08C1728.86 1384.39 1717.1 1388.55 1702.35 1388.55H1666.87V1452H1648.9ZM1666.87 1372.38H1701.79C1711.53 1372.38 1719.01 1369.83 1724.25 1364.74C1729.57 1359.57 1732.23 1352.8 1732.23 1344.41C1732.23 1336.1 1729.57 1329.36 1724.25 1324.2C1718.94 1318.96 1711.45 1316.34 1701.79 1316.34H1666.87V1372.38ZM1904.53 1316.34V1300.16H2029.42V1316.34H1975.85V1452H1957.88V1316.34H1904.53Z" fill="black"/>
<rect x="1846" y="1182" width="188" height="54" fill="black"/>
</svg>
